<?xml version="1.0" encoding="UTF-8"?>
<svg xmlns="http://www.w3.org/2000/svg" version="1.1" width="500" height="500" viewBox="0 0 500 500"><rect x="0" y="0" width="500" height="500" fill="#ffffff"/><g transform="scale(20.000)"><g transform="translate(0.000,0.000)"><path fill-rule="evenodd" d="M8 0L8 1L9 1L9 2L8 2L8 5L9 5L9 4L11 4L11 5L10 5L10 10L9 10L9 13L8 13L8 12L6 12L6 11L8 11L8 10L6 10L6 9L7 9L7 8L6 8L6 9L4 9L4 8L0 8L0 13L1 13L1 15L0 15L0 16L1 16L1 15L2 15L2 13L1 13L1 12L3 12L3 16L2 16L2 17L3 17L3 16L4 16L4 15L5 15L5 17L8 17L8 18L9 18L9 20L10 20L10 21L11 21L11 20L12 20L12 21L13 21L13 20L14 20L14 21L15 21L15 23L14 23L14 22L9 22L9 21L8 21L8 25L9 25L9 23L10 23L10 25L11 25L11 24L13 24L13 25L14 25L14 24L15 24L15 25L16 25L16 24L18 24L18 23L16 23L16 22L19 22L19 21L20 21L20 22L21 22L21 23L20 23L20 24L21 24L21 23L22 23L22 25L25 25L25 23L24 23L24 22L25 22L25 18L23 18L23 17L24 17L24 16L25 16L25 15L24 15L24 14L25 14L25 8L24 8L24 10L21 10L21 9L23 9L23 8L20 8L20 9L19 9L19 10L21 10L21 12L20 12L20 11L17 11L17 13L16 13L16 10L18 10L18 8L17 8L17 6L16 6L16 7L15 7L15 5L17 5L17 4L16 4L16 2L15 2L15 1L16 1L16 0L14 0L14 1L13 1L13 0L12 0L12 1L11 1L11 0L10 0L10 1L9 1L9 0ZM11 2L11 4L12 4L12 3L15 3L15 2ZM13 4L13 5L12 5L12 6L11 6L11 8L12 8L12 6L13 6L13 8L15 8L15 9L13 9L13 10L14 10L14 11L15 11L15 10L16 10L16 9L17 9L17 8L15 8L15 7L14 7L14 4ZM8 6L8 7L9 7L9 6ZM8 8L8 9L9 9L9 8ZM1 9L1 10L2 10L2 9ZM11 9L11 10L12 10L12 9ZM3 10L3 12L5 12L5 10ZM11 11L11 13L9 13L9 14L8 14L8 13L6 13L6 14L5 14L5 15L6 15L6 16L8 16L8 17L9 17L9 18L10 18L10 17L11 17L11 19L10 19L10 20L11 20L11 19L12 19L12 20L13 20L13 19L12 19L12 18L13 18L13 17L14 17L14 15L15 15L15 17L16 17L16 15L15 15L15 13L13 13L13 14L12 14L12 16L10 16L10 15L11 15L11 13L12 13L12 12L13 12L13 11ZM23 11L23 12L22 12L22 15L19 15L19 13L18 13L18 15L17 15L17 16L21 16L21 17L23 17L23 14L24 14L24 13L23 13L23 12L24 12L24 11ZM20 13L20 14L21 14L21 13ZM6 14L6 15L8 15L8 14ZM9 14L9 15L10 15L10 14ZM17 17L17 20L20 20L20 17ZM14 18L14 19L15 19L15 18ZM18 18L18 19L19 19L19 18ZM21 18L21 22L23 22L23 21L24 21L24 20L23 20L23 19L22 19L22 18ZM22 20L22 21L23 21L23 20ZM0 0L7 0L7 7L0 7ZM1 1L1 6L6 6L6 1ZM2 2L5 2L5 5L2 5ZM25 0L25 7L18 7L18 0ZM24 1L19 1L19 6L24 6ZM23 2L23 5L20 5L20 2ZM0 25L0 18L7 18L7 25ZM1 24L6 24L6 19L1 19ZM2 23L2 20L5 20L5 23Z" fill="#000000"/></g></g></svg>
